<svg width="370" height="132" viewBox="0 0 370 132" fill="none" xmlns="http://www.w3.org/2000/svg">
<g filter="url(#filter0_d)">
<path d="M77.7866 48.0317C80.377 43.0935 85.4932 40 91.0698 40H278.93C284.507 40 289.623 43.0935 292.213 48.0317L308.476 79.0317C308.808 79.6652 309.09 80.3066 309.324 80.9526L312.783 87.5691C317.101 95.8269 325.627 101 334.92 101L335 102H35V101C44.2939 101 52.8208 95.8441 57.1387 87.6137L60.7817 80.6691C60.9937 80.119 61.2407 79.5724 61.5244 79.0317L77.7866 48.0317Z" fill="url(#paint0_linear)"/>
</g>
<g filter="url(#filter1_ii)">
<path d="M77.7866 48.0317C80.377 43.0935 85.4932 40 91.0698 40H278.93C284.507 40 289.623 43.0935 292.213 48.0317L308.476 79.0317C308.808 79.6652 309.09 80.3066 309.324 80.9526L312.783 87.5691C317.101 95.8269 325.627 101 334.92 101L335 102H35V101C44.2939 101 52.8208 95.8441 57.1387 87.6137L60.7817 80.6691C60.9937 80.119 61.2407 79.5724 61.5244 79.0317L77.7866 48.0317Z" fill="url(#paint1_linear)"/>
</g>
<path d="M79.1149 48.7286L79.115 48.7285C81.4462 44.2842 86.0508 41.5 91.0698 41.5H278.93C283.949 41.5 288.554 44.2842 290.885 48.7285L307.147 79.7286L307.147 79.7289C307.449 80.3026 307.703 80.8817 307.914 81.4633L307.948 81.5581L307.995 81.6475L311.454 88.264L312.783 87.5691L311.454 88.2641C314.395 93.8879 319.178 98.1628 324.836 100.5H45.1003C50.7512 98.1693 55.5285 93.9116 58.467 88.3106L58.467 88.3105L62.1101 81.366L62.1503 81.2892L62.1815 81.2083C62.3726 80.7122 62.5958 80.2183 62.8527 79.7286L62.8527 79.7286L79.1149 48.7286Z" stroke="url(#paint2_linear)" stroke-width="3"/>
<defs>
<filter id="filter0_d" x="0" y="0" width="370" height="132" filterUnits="userSpaceOnUse" color-interpolation-filters="sRGB">
<feFlood flood-opacity="0" result="BackgroundImageFix"/>
<feColorMatrix in="SourceAlpha" type="matrix" values="0 0 0 0 0 0 0 0 0 0 0 0 0 0 0 0 0 0 127 0"/>
<feOffset dy="-5"/>
<feGaussianBlur stdDeviation="17.5"/>
<feColorMatrix type="matrix" values="0 0 0 0 0.0699306 0 0 0 0 0.687377 0 0 0 0 0.883333 0 0 0 0.2 0"/>
<feBlend mode="normal" in2="BackgroundImageFix" result="effect1_dropShadow"/>
<feBlend mode="normal" in="SourceGraphic" in2="effect1_dropShadow" result="shape"/>
</filter>
<filter id="filter1_ii" x="30" y="35" width="310" height="72" filterUnits="userSpaceOnUse" color-interpolation-filters="sRGB">
<feFlood flood-opacity="0" result="BackgroundImageFix"/>
<feBlend mode="normal" in="SourceGraphic" in2="BackgroundImageFix" result="shape"/>
<feColorMatrix in="SourceAlpha" type="matrix" values="0 0 0 0 0 0 0 0 0 0 0 0 0 0 0 0 0 0 127 0" result="hardAlpha"/>
<feOffset dx="-5" dy="-5"/>
<feGaussianBlur stdDeviation="5"/>
<feComposite in2="hardAlpha" operator="arithmetic" k2="-1" k3="1"/>
<feColorMatrix type="matrix" values="0 0 0 0 0.908333 0 0 0 0 0.9945 0 0 0 0 1 0 0 0 0.3 0"/>
<feBlend mode="normal" in2="shape" result="effect1_innerShadow"/>
<feColorMatrix in="SourceAlpha" type="matrix" values="0 0 0 0 0 0 0 0 0 0 0 0 0 0 0 0 0 0 127 0" result="hardAlpha"/>
<feOffset dx="5" dy="5"/>
<feGaussianBlur stdDeviation="5"/>
<feComposite in2="hardAlpha" operator="arithmetic" k2="-1" k3="1"/>
<feColorMatrix type="matrix" values="0 0 0 0 0.0622222 0 0 0 0 0.0776811 0 0 0 0 0.133333 0 0 0 0.5 0"/>
<feBlend mode="normal" in2="effect1_innerShadow" result="effect2_innerShadow"/>
</filter>
<linearGradient id="paint0_linear" x1="615" y1="71.689" x2="-245" y2="71.689" gradientUnits="userSpaceOnUse">
<stop stop-color="#65C1DE"/>
<stop offset="1" stop-color="#4669C3"/>
</linearGradient>
<linearGradient id="paint1_linear" x1="614.5" y1="71.6889" x2="-245" y2="71.6889" gradientUnits="userSpaceOnUse">
<stop stop-color="#65C1DE"/>
<stop offset="1" stop-color="#4669C3"/>
</linearGradient>
<linearGradient id="paint2_linear" x1="615" y1="71.6888" x2="-245" y2="71.6888" gradientUnits="userSpaceOnUse">
<stop stop-color="#65C1DE"/>
<stop offset="1" stop-color="#4669C3"/>
</linearGradient>
</defs>
</svg>
