<svg width="300" height="62" fill="none" xmlns="http://www.w3.org/2000/svg" class="active"><g filter="url(#filter0_ii)"><path d="M42.787 8.032A15 15 0 0156.07 0h187.86a14.998 14.998 0 0113.283 8.032l16.263 31c.332.633.614 1.275.848 1.92l3.459 6.617C282.101 55.827 290.627 61 299.92 61l.08 1H0v-1a25 25 0 0022.139-13.386l3.643-6.945c.212-.55.459-1.097.742-1.637l16.263-31z" fill="url(#paint0_linear)"/></g><path d="M44.115 8.729h0A13.5 13.5 0 0156.07 1.5h187.86a13.5 13.5 0 0111.955 7.229l16.262 31h0c.302.574.556 1.153.767 1.734l.034.095.047.09 3.459 6.616 1.329-.695-1.329.695A26.53 26.53 0 00289.836 60.5H10.1a26.497 26.497 0 0013.367-12.19h0l3.643-6.944.04-.077.032-.08c.19-.497.414-.99.67-1.48h0l16.263-31z" stroke="url(#paint1_linear)" stroke-width="3"/><defs><linearGradient id="paint0_linear" x1="579.5" y1="31.689" x2="-280" y2="31.689" gradientUnits="userSpaceOnUse"><stop stop-color="#65C1DE"/><stop offset="1" stop-color="#4669C3"/></linearGradient><linearGradient id="paint1_linear" x1="580" y1="31.689" x2="-280" y2="31.689" gradientUnits="userSpaceOnUse"><stop stop-color="#65C1DE"/><stop offset="1" stop-color="#4669C3"/></linearGradient><filter id="filter0_ii" x="-5" y="-5" width="310" height="72" filterUnits="userSpaceOnUse" color-interpolation-filters="sRGB"><feFlood flood-opacity="0" result="BackgroundImageFix"/><feBlend in="SourceGraphic" in2="BackgroundImageFix" result="shape"/><feColorMatrix in="SourceAlpha" values="0 0 0 0 0 0 0 0 0 0 0 0 0 0 0 0 0 0 127 0" result="hardAlpha"/><feOffset dx="-5" dy="-5"/><feGaussianBlur stdDeviation="5"/><feComposite in2="hardAlpha" operator="arithmetic" k2="-1" k3="1"/><feColorMatrix values="0 0 0 0 0.908333 0 0 0 0 0.9945 0 0 0 0 1 0 0 0 0.3 0"/><feBlend in2="shape" result="effect1_innerShadow"/><feColorMatrix in="SourceAlpha" values="0 0 0 0 0 0 0 0 0 0 0 0 0 0 0 0 0 0 127 0" result="hardAlpha"/><feOffset dx="5" dy="5"/><feGaussianBlur stdDeviation="5"/><feComposite in2="hardAlpha" operator="arithmetic" k2="-1" k3="1"/><feColorMatrix values="0 0 0 0 0.0622222 0 0 0 0 0.0776811 0 0 0 0 0.133333 0 0 0 0.5 0"/><feBlend in2="effect1_innerShadow" result="effect2_innerShadow"/></filter></defs></svg>