<svg width="32" height="20" viewBox="0 0 32 20" fill="none" xmlns="http://www.w3.org/2000/svg">
<rect x="1" y="1" width="30" height="18" rx="2" stroke="white" stroke-width="2"/>
<path d="M1 2C1 1.44772 1.44772 1 2 1H7V4C7 5.65685 5.65685 7 4 7H1V2Z" stroke="white" stroke-width="2"/>
<path d="M1 13H4C5.65685 13 7 14.3431 7 16V19H2C1.44772 19 1 18.5523 1 18V13Z" stroke="white" stroke-width="2"/>
<path d="M25 16C25 14.3431 26.3431 13 28 13H31V18C31 18.5523 30.5523 19 30 19H25V16Z" stroke="white" stroke-width="2"/>
<path d="M25 1H30C30.5523 1 31 1.44772 31 2V7H28C26.3431 7 25 5.65685 25 4V1Z" stroke="white" stroke-width="2"/>
<circle cx="16" cy="10" r="4" stroke="white" stroke-width="2"/>
</svg>
