<svg width="24" height="24" viewBox="0 0 24 24" fill="none" xmlns="http://www.w3.org/2000/svg">
<g filter="url(#filter0_ii)">
<path d="M19.0544 3.03353L4.2114 8.24161C2.85474 8.71764 2.88024 10.6451 4.24902 11.0851L10.0737 12.9573C10.534 13.1052 10.8948 13.466 11.0427 13.9263L12.9149 19.751C13.3549 21.1198 15.2824 21.1453 15.7584 19.7886L20.9665 4.94556C21.3829 3.75863 20.2414 2.61706 19.0544 3.03353Z" stroke="url(#paint0_linear)" stroke-width="4"/>
</g>
<path class="hover" d="M19.0544 3.03353L4.2114 8.24161C2.85474 8.71764 2.88024 10.6451 4.24902 11.0851L10.0737 12.9573C10.534 13.1052 10.8948 13.466 11.0427 13.9263L12.9149 19.751C13.3549 21.1198 15.2824 21.1453 15.7584 19.7886L20.9665 4.94556C21.3829 3.75863 20.2414 2.61706 19.0544 3.03353Z" stroke="url(#paint1_linear)" stroke-width="2"/>
<defs>
<filter id="filter0_ii" x="0.208008" y="-0.0576172" width="23.8498" height="23.8498" filterUnits="userSpaceOnUse" color-interpolation-filters="sRGB">
<feFlood flood-opacity="0" result="BackgroundImageFix"/>
<feBlend mode="normal" in="SourceGraphic" in2="BackgroundImageFix" result="shape"/>
<feColorMatrix in="SourceAlpha" type="matrix" values="0 0 0 0 0 0 0 0 0 0 0 0 0 0 0 0 0 0 127 0" result="hardAlpha"/>
<feOffset dx="1" dy="1"/>
<feGaussianBlur stdDeviation="0.5"/>
<feComposite in2="hardAlpha" operator="arithmetic" k2="-1" k3="1"/>
<feColorMatrix type="matrix" values="0 0 0 0 0.0598958 0 0 0 0 0.0695199 0 0 0 0 0.104167 0 0 0 1 0"/>
<feBlend mode="normal" in2="shape" result="effect1_innerShadow"/>
<feColorMatrix in="SourceAlpha" type="matrix" values="0 0 0 0 0 0 0 0 0 0 0 0 0 0 0 0 0 0 127 0" result="hardAlpha"/>
<feOffset dx="-1" dy="-1"/>
<feGaussianBlur stdDeviation="0.5"/>
<feComposite in2="hardAlpha" operator="arithmetic" k2="-1" k3="1"/>
<feColorMatrix type="matrix" values="0 0 0 0 0.219608 0 0 0 0 0.223529 0 0 0 0 0.301961 0 0 0 0.5 0"/>
<feBlend mode="normal" in2="effect1_innerShadow" result="effect2_innerShadow"/>
</filter>
<linearGradient id="paint0_linear" x1="11" y1="2" x2="11" y2="24" gradientUnits="userSpaceOnUse">
<stop stop-color="#1C1C24"/>
<stop offset="1" stop-color="#1C1C24"/>
</linearGradient>
<linearGradient id="paint1_linear" x1="22" y1="13.2444" x2="-1.61306e-07" y2="13.2444" gradientUnits="userSpaceOnUse">
<stop stop-color="#65C1DE"/>
<stop offset="1" stop-color="#4669C3"/>
</linearGradient>
</defs>
</svg>
