<svg width="22" height="23" viewBox="0 0 22 23" fill="none" xmlns="http://www.w3.org/2000/svg">
<g filter="url(#filter0_ii)">
<path fill-rule="evenodd" clip-rule="evenodd" d="M14.5488 17.5488C13.0861 18.4682 11.3552 19 9.5 19C4.25329 19 0 14.7467 0 9.5C0 4.25329 4.25329 0 9.5 0C14.7467 0 19 4.25329 19 9.5C19 11.444 18.4161 13.2517 17.414 14.7572L21.4142 18.7574C22.1953 19.5384 22.1953 20.8047 21.4142 21.5858C20.6332 22.3668 19.3668 22.3668 18.5858 21.5858L14.5488 17.5488ZM15 9.5C15 12.5376 12.5376 15 9.5 15C6.46243 15 4 12.5376 4 9.5C4 6.46243 6.46243 4 9.5 4C12.5376 4 15 6.46243 15 9.5Z" fill="url(#paint0_linear)"/>
</g>
<path class="hover" fill-rule="evenodd" clip-rule="evenodd" d="M14.7137 16.2137C13.2741 17.3333 11.4649 18 9.5 18C4.80558 18 1 14.1944 1 9.5C1 4.80558 4.80558 1 9.5 1C14.1944 1 18 4.80558 18 9.5C18 11.5088 17.3032 13.3548 16.138 14.8096L20.7071 19.3787C21.0976 19.7692 21.0976 20.4024 20.7071 20.7929C20.3166 21.1834 19.6834 21.1834 19.2929 20.7929L14.7137 16.2137ZM16 9.5C16 13.0899 13.0899 16 9.5 16C5.91015 16 3 13.0899 3 9.5C3 5.91015 5.91015 3 9.5 3C13.0899 3 16 5.91015 16 9.5Z" fill="url(#paint1_linear)"/>
<defs>
<filter id="filter0_ii" x="-1" y="-1" width="24" height="24.1716" filterUnits="userSpaceOnUse" color-interpolation-filters="sRGB">
<feFlood flood-opacity="0" result="BackgroundImageFix"/>
<feBlend mode="normal" in="SourceGraphic" in2="BackgroundImageFix" result="shape"/>
<feColorMatrix in="SourceAlpha" type="matrix" values="0 0 0 0 0 0 0 0 0 0 0 0 0 0 0 0 0 0 127 0" result="hardAlpha"/>
<feOffset dx="1" dy="1"/>
<feGaussianBlur stdDeviation="0.5"/>
<feComposite in2="hardAlpha" operator="arithmetic" k2="-1" k3="1"/>
<feColorMatrix type="matrix" values="0 0 0 0 0.0598958 0 0 0 0 0.0695199 0 0 0 0 0.104167 0 0 0 1 0"/>
<feBlend mode="normal" in2="shape" result="effect1_innerShadow"/>
<feColorMatrix in="SourceAlpha" type="matrix" values="0 0 0 0 0 0 0 0 0 0 0 0 0 0 0 0 0 0 127 0" result="hardAlpha"/>
<feOffset dx="-1" dy="-1"/>
<feGaussianBlur stdDeviation="0.5"/>
<feComposite in2="hardAlpha" operator="arithmetic" k2="-1" k3="1"/>
<feColorMatrix type="matrix" values="0 0 0 0 0.219608 0 0 0 0 0.223529 0 0 0 0 0.301961 0 0 0 0.5 0"/>
<feBlend mode="normal" in2="effect1_innerShadow" result="effect2_innerShadow"/>
</filter>
<linearGradient id="paint0_linear" x1="11" y1="0" x2="11" y2="22.1716" gradientUnits="userSpaceOnUse">
<stop stop-color="#1C1C24"/>
<stop offset="1" stop-color="#1C1C24"/>
</linearGradient>
<linearGradient id="paint1_linear" x1="20.6296" y1="8.42301" x2="4.8801" y2="5.56037" gradientUnits="userSpaceOnUse">
<stop stop-color="#476AC4"/>
<stop offset="1" stop-color="#65C0DE"/>
</linearGradient>
</defs>
</svg>
