<svg width="19" height="21" viewBox="0 0 19 21" fill="none" xmlns="http://www.w3.org/2000/svg">
<g filter="url(#filter0_ii)">
<path d="M17 9.4375C17 13.4206 13.2356 17.4037 10.1169 18.7629C9.72333 18.9344 9.27667 18.9344 8.8831 18.7629C5.76435 17.4037 2 13.4206 2 9.4375V4C2 2.89543 2.89543 2 4 2H15C16.1046 2 17 2.89488 17 3.99945V9.4375Z" stroke="url(#paint0_linear)" stroke-width="4"/>
</g>
<path class="hover" d="M17 9.4375C17 13.4206 13.2356 17.4037 10.1169 18.7629C9.72333 18.9344 9.27667 18.9344 8.8831 18.7629C5.76435 17.4037 2 13.4206 2 9.4375V4C2 2.89543 2.89543 2 4 2H15C16.1046 2 17 2.89488 17 3.99945V9.4375Z" stroke="url(#paint1_linear)" stroke-width="2"/>
<defs>
<filter id="filter0_ii" x="-1" y="-1" width="21" height="22.8916" filterUnits="userSpaceOnUse" color-interpolation-filters="sRGB">
<feFlood flood-opacity="0" result="BackgroundImageFix"/>
<feBlend mode="normal" in="SourceGraphic" in2="BackgroundImageFix" result="shape"/>
<feColorMatrix in="SourceAlpha" type="matrix" values="0 0 0 0 0 0 0 0 0 0 0 0 0 0 0 0 0 0 127 0" result="hardAlpha"/>
<feOffset dx="1" dy="1"/>
<feGaussianBlur stdDeviation="0.5"/>
<feComposite in2="hardAlpha" operator="arithmetic" k2="-1" k3="1"/>
<feColorMatrix type="matrix" values="0 0 0 0 0.0598958 0 0 0 0 0.0695199 0 0 0 0 0.104167 0 0 0 1 0"/>
<feBlend mode="normal" in2="shape" result="effect1_innerShadow"/>
<feColorMatrix in="SourceAlpha" type="matrix" values="0 0 0 0 0 0 0 0 0 0 0 0 0 0 0 0 0 0 127 0" result="hardAlpha"/>
<feOffset dx="-1" dy="-1"/>
<feGaussianBlur stdDeviation="0.5"/>
<feComposite in2="hardAlpha" operator="arithmetic" k2="-1" k3="1"/>
<feColorMatrix type="matrix" values="0 0 0 0 0.219608 0 0 0 0 0.223529 0 0 0 0 0.301961 0 0 0 0.5 0"/>
<feBlend mode="normal" in2="effect1_innerShadow" result="effect2_innerShadow"/>
</filter>
<linearGradient id="paint0_linear" x1="9.5" y1="2" x2="9.5" y2="19" gradientUnits="userSpaceOnUse">
<stop stop-color="#1C1C24"/>
<stop offset="1" stop-color="#1C1C24"/>
</linearGradient>
<linearGradient id="paint1_linear" x1="17" y1="10.6889" x2="2" y2="10.6889" gradientUnits="userSpaceOnUse">
<stop stop-color="#65C1DE"/>
<stop offset="1" stop-color="#4669C3"/>
</linearGradient>
</defs>
</svg>
