<svg width="28" height="32" viewBox="0 0 28 32" fill="none" xmlns="http://www.w3.org/2000/svg">
<path d="M1.5 9L14 1L26.5 9L14 16.5L1.5 9Z" stroke="white" stroke-width="2" stroke-linecap="round" stroke-linejoin="round"/>
<path d="M1.49719 14.8145L0.960947 15.1576C0.669421 15.3442 0.495105 15.6683 0.500105 16.0144C0.505105 16.3604 0.688711 16.6793 0.985505 16.8574L13.4855 24.3574C13.8022 24.5474 14.1978 24.5474 14.5145 24.3574L27.0145 16.8574C27.3113 16.6793 27.4949 16.3604 27.4999 16.0144C27.5049 15.6683 27.3306 15.3442 27.0391 15.1576L26.5028 14.8145L24.5879 15.9634L24.6021 15.9725L14 22.3337L3.39795 15.9725L3.41214 15.9634L1.49719 14.8145Z" fill="white"/>
<path d="M1.49719 21.7998L0.960947 22.143C0.669421 22.3296 0.495105 22.6536 0.500105 22.9997C0.505105 23.3458 0.688711 23.6647 0.985505 23.8428L13.4855 31.3428C13.8022 31.5328 14.1978 31.5328 14.5145 31.3428L27.0145 23.8428C27.3113 23.6647 27.4949 23.3458 27.4999 22.9997C27.5049 22.6536 27.3306 22.3296 27.0391 22.143L26.5028 21.7998L24.5879 22.9488L24.6021 22.9579L14 29.3191L3.39795 22.9579L3.41214 22.9488L1.49719 21.7998Z" fill="white"/>
</svg>
