<svg width="202" height="32" viewBox="0 0 202 32" fill="none" xmlns="http://www.w3.org/2000/svg">
<path d="M7.64005 25.9999H1.37605C1.11205 25.9999 0.980049 25.8679 0.980049 25.6039V24.7759C0.980049 24.5359 1.11205 24.4159 1.37605 24.4159H7.46005C9.62005 24.4159 10.7 23.5759 10.7 21.8959V21.0319C10.7 19.4719 10.028 18.4519 8.68405 17.9719L4.18405 16.2439C2.96005 15.7639 2.08405 15.1999 1.55605 14.5519C1.05205 13.9039 0.800049 13.0039 0.800049 11.8519C0.800049 9.04389 2.34805 7.63989 5.44405 7.63989H11.276C11.54 7.63989 11.672 7.77189 11.672 8.03589V8.86389C11.672 9.10389 11.54 9.22389 11.276 9.22389H5.62405C4.64005 9.22389 3.89605 9.43989 3.39205 9.87189C2.91205 10.3039 2.67205 10.8079 2.67205 11.3839V12.2119C2.67205 12.8839 2.85205 13.4119 3.21205 13.7959C3.59605 14.1799 4.17205 14.5039 4.94005 14.7679L9.44005 16.5679C10.688 16.9759 11.516 17.5879 11.924 18.4039C12.356 19.1959 12.572 20.3119 12.572 21.7519C12.572 23.1919 12.164 24.2599 11.3481 24.9559C10.556 25.6519 9.32005 25.9999 7.64005 25.9999Z" fill="#F2F2F2"/>
<path d="M17.384 4.61589V1.15989C17.384 0.895893 17.504 0.763894 17.744 0.763894H18.824C19.064 0.763894 19.184 0.895893 19.184 1.15989V4.61589C19.184 4.90389 19.064 5.04789 18.824 5.04789H17.744C17.504 5.04789 17.384 4.90389 17.384 4.61589ZM17.384 25.5679V8.07189C17.384 7.78389 17.504 7.63989 17.744 7.63989H18.788C19.052 7.63989 19.184 7.78389 19.184 8.07189V25.5679C19.184 25.8559 19.064 25.9999 18.824 25.9999H17.744C17.504 25.9999 17.384 25.8559 17.384 25.5679Z" fill="#F2F2F2"/>
<path d="M26.1665 25.9999H25.1225C24.8825 25.9999 24.7625 25.8559 24.7625 25.5679V8.07189C24.7625 7.78389 24.8825 7.63989 25.1225 7.63989H26.1665C26.4305 7.63989 26.5625 7.78389 26.5625 8.07189V9.51189H26.7065C27.4025 8.26389 28.6745 7.63989 30.5225 7.63989H31.9986C34.1106 7.63989 35.5745 8.47989 36.3905 10.1599C36.7505 9.31989 37.3626 8.69589 38.2266 8.28789C39.0906 7.85589 39.9785 7.63989 40.8905 7.63989H42.2225C43.7825 7.63989 45.0065 8.09589 45.8946 9.00789C46.7826 9.91989 47.2266 11.1679 47.2266 12.7519V25.5679C47.2266 25.8559 47.0946 25.9999 46.8306 25.9999H45.7865C45.5225 25.9999 45.3905 25.8559 45.3905 25.5679V12.8239C45.3905 11.6719 45.1026 10.7959 44.5266 10.1959C43.9506 9.57189 43.1105 9.25989 42.0065 9.25989H40.6745C39.5225 9.25989 38.6105 9.59589 37.9385 10.2679C37.2665 10.9159 36.9305 11.8039 36.9305 12.9319V25.5679C36.9305 25.8559 36.7985 25.9999 36.5345 25.9999H35.4906C35.2266 25.9999 35.0946 25.8559 35.0946 25.5679V12.8239C35.0946 11.6719 34.8065 10.7959 34.2305 10.1959C33.6545 9.57189 32.8145 9.25989 31.7105 9.25989H30.2705C29.1185 9.25989 28.2065 9.57189 27.5345 10.1959C26.8865 10.7959 26.5625 11.6599 26.5625 12.7879V25.5679C26.5625 25.8559 26.4305 25.9999 26.1665 25.9999Z" fill="#F2F2F2"/>
<path d="M62.6905 24.7759V25.6039C62.6905 25.8679 62.5585 25.9999 62.2945 25.9999H57.1105C55.5505 25.9999 54.3145 25.5439 53.4025 24.6319C52.5145 23.7199 52.0705 22.4719 52.0705 20.8879V12.7519C52.0705 11.1679 52.5145 9.91989 53.4025 9.00789C54.3145 8.09589 55.5505 7.63989 57.1105 7.63989H62.2945C62.5585 7.63989 62.6905 7.77189 62.6905 8.03589V8.89989C62.6905 9.13989 62.5585 9.25989 62.2945 9.25989H57.2545C56.1505 9.25989 55.3105 9.57189 54.7345 10.1959C54.1585 10.8199 53.8705 11.6959 53.8705 12.8239V20.8159C53.8705 21.9439 54.1585 22.8199 54.7345 23.4439C55.3105 24.0679 56.1505 24.3799 57.2545 24.3799H62.2945C62.5585 24.3799 62.6905 24.5119 62.6905 24.7759Z" fill="#F2F2F2"/>
<path d="M73.5825 25.9999H71.2785C69.7185 25.9999 68.4825 25.5439 67.5705 24.6319C66.6825 23.7199 66.2385 22.4719 66.2385 20.8879V12.7519C66.2385 11.1679 66.6825 9.91989 67.5705 9.00789C68.4825 8.09589 69.7185 7.63989 71.2785 7.63989H78.9105C79.1505 7.63989 79.2705 7.78389 79.2705 8.07189V25.5679C79.2705 25.8559 79.1505 25.9999 78.9105 25.9999H77.8665C77.6025 25.9999 77.4705 25.8559 77.4705 25.5679V24.1279H77.3265C76.7025 25.3759 75.4545 25.9999 73.5825 25.9999ZM77.4705 20.8519V9.58389C77.4705 9.36789 77.3505 9.25989 77.1105 9.25989H71.4225C70.3185 9.25989 69.4785 9.57189 68.9025 10.1959C68.3265 10.8199 68.0385 11.6959 68.0385 12.8239V20.8159C68.0385 21.9439 68.3265 22.8199 68.9025 23.4439C69.4785 24.0679 70.3185 24.3799 71.4225 24.3799H73.7625C74.9145 24.3799 75.8145 24.0799 76.4625 23.4799C77.1345 22.8559 77.4705 21.9799 77.4705 20.8519Z" fill="#F2F2F2"/>
<path d="M86.0728 25.9999H85.0288C84.7888 25.9999 84.6688 25.8559 84.6688 25.5679V8.07189C84.6688 7.78389 84.7888 7.63989 85.0288 7.63989H86.0728C86.3368 7.63989 86.4688 7.78389 86.4688 8.07189V9.58389H86.6128C86.8768 9.07989 87.3448 8.63589 88.0168 8.25189C88.6888 7.84389 89.5168 7.63989 90.5008 7.63989H91.9048C92.1688 7.63989 92.3008 7.77189 92.3008 8.03589V8.89989C92.3008 9.16389 92.1688 9.28389 91.9048 9.25989H90.2128C89.0368 9.25989 88.1128 9.61989 87.4408 10.3399C86.7928 11.0599 86.4688 12.0319 86.4688 13.2559V25.5679C86.4688 25.8559 86.3368 25.9999 86.0728 25.9999Z" fill="#F2F2F2"/>
<path d="M102.974 25.9999H100.562C99.026 25.9999 97.814 25.5439 96.926 24.6319C96.038 23.7199 95.594 22.4719 95.594 20.8879V12.7519C95.594 11.1679 96.038 9.91989 96.926 9.00789C97.814 8.09589 99.026 7.63989 100.562 7.63989H102.974C104.822 7.63989 106.082 8.26389 106.754 9.51189H106.898V1.12389C106.898 0.835894 107.018 0.691895 107.258 0.691895H108.302C108.566 0.691895 108.698 0.835894 108.698 1.12389V25.5679C108.698 25.8559 108.566 25.9999 108.302 25.9999H107.258C107.018 25.9999 106.898 25.8559 106.898 25.5679V24.1279H106.754C106.082 25.3759 104.822 25.9999 102.974 25.9999ZM106.898 20.8519V12.7879C106.898 11.6599 106.562 10.7959 105.89 10.1959C105.242 9.57189 104.342 9.25989 103.19 9.25989H100.778C99.674 9.25989 98.834 9.57189 98.258 10.1959C97.682 10.8199 97.394 11.6959 97.394 12.8239V20.8159C97.394 21.9439 97.682 22.8199 98.258 23.4439C98.834 24.0679 99.674 24.3799 100.778 24.3799H103.19C104.342 24.3799 105.242 24.0799 105.89 23.4799C106.562 22.8559 106.898 21.9799 106.898 20.8519Z" fill="#F2F2F2"/>
<path d="M120.035 25.9999H113.771C113.507 25.9999 113.375 25.8679 113.375 25.6039V24.7759C113.375 24.5359 113.507 24.4159 113.771 24.4159H119.855C122.015 24.4159 123.095 23.5759 123.095 21.8959V21.0319C123.095 19.4719 122.423 18.4519 121.079 17.9719L116.579 16.2439C115.355 15.7639 114.479 15.1999 113.951 14.5519C113.447 13.9039 113.195 13.0039 113.195 11.8519C113.195 9.04389 114.743 7.63989 117.839 7.63989H123.671C123.935 7.63989 124.067 7.77189 124.067 8.03589V8.86389C124.067 9.10389 123.935 9.22389 123.671 9.22389H118.019C117.035 9.22389 116.291 9.43989 115.787 9.87189C115.307 10.3039 115.067 10.8079 115.067 11.3839V12.2119C115.067 12.8839 115.247 13.4119 115.607 13.7959C115.991 14.1799 116.567 14.5039 117.335 14.7679L121.835 16.5679C123.083 16.9759 123.911 17.5879 124.319 18.4039C124.751 19.1959 124.967 20.3119 124.967 21.7519C124.967 23.1919 124.559 24.2599 123.743 24.9559C122.951 25.6519 121.715 25.9999 120.035 25.9999Z" fill="#F2F2F2"/>
<path d="M131.326 21.2839V25.5679C131.326 25.8559 131.206 25.9999 130.966 25.9999H129.706C129.442 25.9999 129.31 25.8559 129.31 25.5679V21.2839C129.31 21.0199 129.442 20.8879 129.706 20.8879H130.966C131.206 20.8879 131.326 21.0199 131.326 21.2839Z" fill="#F2F2F2"/>
<path d="M142.429 25.9999H136.165C135.901 25.9999 135.769 25.8679 135.769 25.6039V24.7759C135.769 24.5359 135.901 24.4159 136.165 24.4159H142.249C144.409 24.4159 145.489 23.5759 145.489 21.8959V21.0319C145.489 19.4719 144.817 18.4519 143.473 17.9719L138.973 16.2439C137.749 15.7639 136.873 15.1999 136.345 14.5519C135.841 13.9039 135.589 13.0039 135.589 11.8519C135.589 9.04389 137.137 7.63989 140.233 7.63989H146.065C146.329 7.63989 146.461 7.77189 146.461 8.03589V8.86389C146.461 9.10389 146.329 9.22389 146.065 9.22389H140.413C139.429 9.22389 138.685 9.43989 138.181 9.87189C137.701 10.3039 137.461 10.8079 137.461 11.3839V12.2119C137.461 12.8839 137.641 13.4119 138.001 13.7959C138.385 14.1799 138.961 14.5039 139.729 14.7679L144.229 16.5679C145.477 16.9759 146.305 17.5879 146.713 18.4039C147.145 19.1959 147.361 20.3119 147.361 21.7519C147.361 23.1919 146.953 24.2599 146.137 24.9559C145.345 25.6519 144.109 25.9999 142.429 25.9999Z" fill="#F2F2F2"/>
<path d="M153.397 25.9999H152.353C152.113 25.9999 151.993 25.8559 151.993 25.5679V1.12389C151.993 0.835894 152.113 0.691895 152.353 0.691895H153.397C153.661 0.691895 153.793 0.835894 153.793 1.12389V9.51189H153.937C154.609 8.26389 155.857 7.63989 157.681 7.63989H160.057C161.593 7.63989 162.805 8.09589 163.693 9.00789C164.581 9.91989 165.025 11.1679 165.025 12.7519V25.5679C165.025 25.8559 164.905 25.9999 164.665 25.9999H163.621C163.357 25.9999 163.225 25.8559 163.225 25.5679V12.8239C163.225 11.6959 162.937 10.8199 162.361 10.1959C161.785 9.57189 160.945 9.25989 159.841 9.25989H157.501C156.349 9.25989 155.437 9.57189 154.765 10.1959C154.117 10.7959 153.793 11.6599 153.793 12.7879V25.5679C153.793 25.8559 153.661 25.9999 153.397 25.9999Z" fill="#F2F2F2"/>
<path d="M178.015 25.9999H174.919C173.359 25.9999 172.123 25.5439 171.211 24.6319C170.323 23.7199 169.879 22.4719 169.879 20.8879V12.7519C169.879 11.1679 170.323 9.91989 171.211 9.00789C172.123 8.09589 173.359 7.63989 174.919 7.63989H178.015C179.575 7.63989 180.811 8.09589 181.723 9.00789C182.635 9.91989 183.091 11.1679 183.091 12.7519V20.8879C183.091 22.4719 182.635 23.7199 181.723 24.6319C180.811 25.5439 179.575 25.9999 178.015 25.9999ZM175.063 24.3799H177.871C178.975 24.3799 179.815 24.0799 180.391 23.4799C180.991 22.8559 181.291 21.9799 181.291 20.8519V12.7879C181.291 11.6599 180.991 10.7959 180.391 10.1959C179.815 9.57189 178.975 9.25989 177.871 9.25989H175.063C173.959 9.25989 173.119 9.57189 172.543 10.1959C171.967 10.7959 171.679 11.6599 171.679 12.7879V20.8519C171.679 21.9799 171.967 22.8559 172.543 23.4799C173.119 24.0799 173.959 24.3799 175.063 24.3799Z" fill="#F2F2F2"/>
<path d="M189.502 31.3639H188.458C188.218 31.3639 188.098 31.2319 188.098 30.9679V8.07189C188.098 7.78389 188.218 7.63989 188.458 7.63989H189.502C189.766 7.63989 189.898 7.78389 189.898 8.07189V9.51189H190.042C190.714 8.26389 191.962 7.63989 193.786 7.63989H196.234C197.77 7.63989 198.982 8.09589 199.87 9.00789C200.758 9.91989 201.202 11.1679 201.202 12.7519V20.8879C201.202 22.4719 200.758 23.7199 199.87 24.6319C198.982 25.5439 197.77 25.9999 196.234 25.9999H193.786C191.962 25.9999 190.714 25.3759 190.042 24.1279H189.898V30.9679C189.898 31.2319 189.766 31.3639 189.502 31.3639ZM193.606 24.3799H195.982C197.086 24.3799 197.926 24.0799 198.502 23.4799C199.102 22.8559 199.402 21.9679 199.402 20.8159V12.8239C199.402 11.6719 199.102 10.7959 198.502 10.1959C197.926 9.57189 197.086 9.25989 195.982 9.25989H193.606C192.454 9.25989 191.542 9.57189 190.87 10.1959C190.222 10.7959 189.898 11.6599 189.898 12.7879V20.8519C189.898 21.9799 190.222 22.8559 190.87 23.4799C191.542 24.0799 192.454 24.3799 193.606 24.3799Z" fill="#F2F2F2"/>
</svg>
