<svg width="136" height="32" viewBox="0 0 136 32" fill="none" xmlns="http://www.w3.org/2000/svg">
<path d="M134.162 11.0723H107.205L102.593 14.7428V29.6883C102.593 30.4749 103.418 31.1495 104.43 31.1495H134.162C135.174 31.1495 135.999 30.5126 135.999 29.6883V12.5335C135.999 11.7469 135.174 11.0723 134.162 11.0723Z" fill="#2196F3"/>
<path d="M17.8148 0H13.6763V14.6033H17.8148V0Z" fill="#2196F3"/>
<path d="M27.6907 12.7251C27.6414 12.6104 27.5975 12.494 27.5437 12.382L27.3688 12.0514L27.0173 11.3947C26.7644 10.97 26.4819 10.5651 26.2075 10.1655C26.0541 9.97648 25.9008 9.78923 25.7493 9.60199C25.595 9.41743 25.4533 9.22481 25.2794 9.06176C25.1126 8.89243 24.9467 8.7249 24.7826 8.55826C24.6992 8.47673 24.6193 8.39162 24.535 8.31278L24.2696 8.09059C23.2993 7.24755 22.26 6.60608 21.2556 6.13393V8.73296C21.7094 9.0734 22.156 9.44789 22.573 9.8842L22.7711 10.0822C22.833 10.1521 22.8904 10.2282 22.9514 10.3008C23.0707 10.4459 23.1917 10.5938 23.3128 10.7416C23.441 10.8822 23.5379 11.0507 23.6473 11.2092C23.754 11.3687 23.8625 11.5282 23.9701 11.6895C24.1557 12.0299 24.3494 12.3677 24.5171 12.718L24.7422 13.2573L24.8561 13.5261C24.8902 13.6165 24.9144 13.7115 24.944 13.8047C25.4345 15.2794 25.5663 16.8427 25.395 18.2582C25.2309 19.6765 24.7691 20.9263 24.2293 21.8983C24.162 22.021 24.0965 22.1411 24.0329 22.2567C23.971 22.374 23.8858 22.4753 23.8176 22.581C23.6697 22.787 23.5459 22.9922 23.406 23.1678C23.1065 23.5056 22.8841 23.8272 22.6375 24.0386C22.4044 24.259 22.2385 24.4481 22.1022 24.5538C21.9685 24.6613 21.8968 24.7195 21.8968 24.7195C21.8968 24.7195 21.782 24.8127 21.5668 24.9874C21.4655 25.0815 21.3166 25.1693 21.1498 25.2804C20.9785 25.3861 20.7983 25.5285 20.5723 25.6522C19.6953 26.1798 18.3134 26.7523 16.5979 26.893C16.4912 26.9028 16.3836 26.9136 16.2751 26.9252C16.1657 26.9324 16.0545 26.9234 15.9424 26.9243C15.72 26.9226 15.4931 26.9217 15.2626 26.9199C14.8044 26.8563 14.3291 26.8437 13.8601 26.7147C12.9185 26.5104 11.9545 26.1727 11.0757 25.6208C10.1933 25.0824 9.37994 24.38 8.71455 23.5486C8.04827 22.7199 7.53174 21.7666 7.20801 20.7659C6.88787 19.7643 6.73632 18.7214 6.80537 17.6983C6.86725 16.677 7.10399 15.7094 7.47435 14.8448C7.8465 13.9821 8.33433 13.2071 8.92081 12.5889C9.5019 11.9699 10.118 11.4574 10.7448 11.0892C10.8273 11.0399 10.9089 10.9987 10.9905 10.9539V2.23047C9.56288 2.67932 7.89134 3.41844 6.25118 4.64763C5.09437 5.5059 3.98688 6.61414 3.00942 7.91858C2.02658 9.22123 1.23744 10.7729 0.708354 12.4546C0.180167 14.1371 -0.0655429 15.9584 0.014268 17.7753C0.0833179 19.594 0.526313 21.4253 1.25717 23.1042C1.99161 24.7849 3.03273 26.3106 4.27653 27.5784C5.51943 28.8488 6.9614 29.862 8.46974 30.5868C9.97449 31.325 11.5617 31.7264 13.0629 31.9011C13.8144 32.014 14.5506 31.9889 15.2564 31.9997C15.6088 31.9701 15.9549 31.9405 16.2948 31.911C16.4634 31.893 16.632 31.885 16.7961 31.859C16.9611 31.8276 17.1234 31.7972 17.2848 31.7676C19.8692 31.3008 21.8152 30.2401 23.0177 29.3594C23.3271 29.148 23.5764 28.9222 23.8051 28.7439C24.0293 28.5603 24.2248 28.4098 24.362 28.2646C24.648 27.9842 24.7996 27.8355 24.7996 27.8355C24.7996 27.8355 24.8929 27.7432 25.0668 27.5712C25.2417 27.401 25.4632 27.1152 25.7591 26.7694C26.0667 26.4325 26.3581 25.9577 26.7204 25.4407C26.8908 25.1755 27.0451 24.8745 27.219 24.5672C27.3006 24.4095 27.3993 24.2572 27.4719 24.087C27.5463 23.9177 27.6226 23.7439 27.7006 23.5656C28.3202 22.151 28.7821 20.3797 28.8215 18.475C28.8708 16.5802 28.4987 14.5537 27.6907 12.7251Z" fill="#2196F3"/>
<path d="M32.3188 30.1988V14.3162H33.9985C34.3957 14.3162 34.6423 14.5097 34.7365 14.8959L34.9562 16.6205C35.6467 15.8572 36.4206 15.2408 37.2788 14.7704C38.1361 14.3001 39.1252 14.0645 40.2443 14.0645C41.1124 14.0645 41.8791 14.2087 42.5436 14.4954C43.2081 14.783 43.7623 15.1906 44.2071 15.7183C44.6519 16.246 44.989 16.8812 45.2186 17.623C45.4482 18.3657 45.5639 19.1855 45.5639 20.0849V30.197H42.7543V20.0858C42.7543 18.8835 42.4799 17.9509 41.9311 17.287C41.3814 16.6232 40.5474 16.2917 39.4274 16.2917C38.5907 16.2917 37.8141 16.4906 37.0967 16.8875C36.3802 17.2843 35.7238 17.8228 35.1275 18.5019V30.1979H32.3188V30.1988Z" fill="#2196F3"/>
<path d="M52.7199 7.10547V30.1993H49.9265V7.10547H52.7199Z" fill="#2196F3"/>
<path d="M60.7854 9.33113C60.7854 9.60349 60.7307 9.85613 60.6204 10.0918C60.5101 10.3274 60.3639 10.5361 60.181 10.7189C59.998 10.9017 59.7837 11.0459 59.538 11.1498C59.2923 11.2546 59.0331 11.3066 58.7614 11.3066C58.4888 11.3066 58.2359 11.2546 58.0001 11.1498C57.7642 11.0459 57.558 10.9017 57.3804 10.7189C57.202 10.5361 57.0612 10.3265 56.9562 10.0918C56.8513 9.85703 56.7993 9.60349 56.7993 9.33113C56.7993 9.05967 56.8513 8.80075 56.9562 8.55528C57.0612 8.3098 57.202 8.09568 57.3804 7.91291C57.558 7.73015 57.7651 7.5859 58.0001 7.48198C58.235 7.37716 58.4888 7.3252 58.7614 7.3252C59.0331 7.3252 59.2923 7.37716 59.538 7.48198C59.7837 7.5868 59.998 7.73015 60.181 7.91291C60.3639 8.09568 60.511 8.3098 60.6204 8.55528C60.7307 8.80075 60.7854 9.05878 60.7854 9.33113ZM60.189 14.316V30.1977H57.3957V14.316H60.189Z" fill="#2196F3"/>
<path d="M64.7715 30.1988V14.3162H66.4511C66.8484 14.3162 67.095 14.5097 67.1891 14.8959L67.4088 16.6205C68.0993 15.8572 68.8732 15.2408 69.7314 14.7704C70.5887 14.3001 71.5778 14.0645 72.697 14.0645C73.565 14.0645 74.3317 14.2087 74.9962 14.4954C75.6607 14.783 76.2149 15.1906 76.6597 15.7183C77.1045 16.246 77.4417 16.8812 77.6712 17.623C77.9008 18.3657 78.0165 19.1855 78.0165 20.0849V30.197H75.207V20.0858C75.207 18.8835 74.9326 17.9509 74.3838 17.287C73.8341 16.6232 73.0001 16.2917 71.88 16.2917C71.0434 16.2917 70.2668 16.4906 69.5494 16.8875C68.8329 17.2843 68.1765 17.8228 67.5801 18.5019V30.1979H64.7715V30.1988Z" fill="#2196F3"/>
<path d="M88.7971 14.0654C89.7485 14.0654 90.6301 14.2249 91.4407 14.5438C92.2514 14.8628 92.9526 15.3224 93.5436 15.9235C94.1346 16.5247 94.5973 17.2674 94.9327 18.1499C95.2672 19.0332 95.4348 20.0384 95.4348 21.1682C95.4348 21.6063 95.3873 21.8992 95.2932 22.0453C95.199 22.1913 95.0205 22.2648 94.7596 22.2648H84.1358C84.1564 23.2682 84.2927 24.1408 84.5438 24.8826C84.7949 25.6253 85.1401 26.2444 85.5795 26.7407C86.019 27.2371 86.5418 27.608 87.1489 27.8534C87.756 28.0989 88.4357 28.2217 89.189 28.2217C89.8893 28.2217 90.4937 28.141 91.0013 27.9789C91.5089 27.8167 91.9456 27.642 92.3115 27.4539C92.6773 27.2657 92.9831 27.091 93.2288 26.9289C93.4745 26.7667 93.6862 26.6861 93.8646 26.6861C94.0942 26.6861 94.2727 26.7757 94.3982 26.9531L95.1829 27.9717C94.8376 28.3901 94.4242 28.7538 93.9436 29.062C93.4629 29.3702 92.9473 29.6237 92.3976 29.8226C91.8478 30.0215 91.2802 30.1703 90.6946 30.2697C90.109 30.3682 89.5279 30.4184 88.9531 30.4184C87.8546 30.4184 86.8422 30.233 85.9167 29.8621C84.9913 29.4912 84.1905 28.9473 83.5161 28.2315C82.8418 27.5157 82.3154 26.6296 81.9387 25.5743C81.5621 24.518 81.3738 23.3067 81.3738 21.936C81.3738 20.8286 81.5433 19.7939 81.8831 18.8326C82.223 17.8712 82.7126 17.0372 83.3502 16.3312C83.9878 15.6252 84.768 15.0715 85.6881 14.6693C86.6108 14.267 87.6457 14.0654 88.7971 14.0654ZM88.8599 16.1197C87.5103 16.1197 86.4485 16.5095 85.6746 17.288C84.8998 18.0674 84.4192 19.1461 84.2308 20.5258H92.9248C92.9248 19.8781 92.8334 19.285 92.6504 18.7465C92.4675 18.2081 92.2012 17.7431 91.8496 17.3516C91.499 16.9592 91.073 16.6564 90.5709 16.4423C90.0678 16.2273 89.4975 16.1197 88.8599 16.1197Z" fill="#2196F3"/>
<path d="M113.73 18.2916C113.68 18.3803 113.626 18.4439 113.569 18.4842C113.513 18.5237 113.442 18.5443 113.357 18.5443C113.269 18.5443 113.173 18.5111 113.07 18.4466C112.967 18.3812 112.844 18.3086 112.7 18.2289C112.557 18.1492 112.389 18.0766 112.198 18.0112C112.006 17.9458 111.779 17.9136 111.518 17.9136C111.282 17.9136 111.075 17.9422 110.898 17.9987C110.722 18.0551 110.573 18.1339 110.453 18.2352C110.333 18.3364 110.244 18.4574 110.185 18.598C110.125 18.7396 110.096 18.8946 110.096 19.0621C110.096 19.2771 110.156 19.4554 110.276 19.5988C110.396 19.7421 110.556 19.8639 110.753 19.9652C110.95 20.0664 111.176 20.1569 111.429 20.2366C111.682 20.3164 111.941 20.4024 112.207 20.4929C112.472 20.5834 112.731 20.6882 112.984 20.8091C113.237 20.9292 113.462 21.0806 113.66 21.2642C113.859 21.447 114.017 21.671 114.138 21.9362C114.258 22.2014 114.318 22.523 114.318 22.902C114.318 23.315 114.247 23.7011 114.106 24.0613C113.964 24.4205 113.758 24.735 113.487 25.002C113.215 25.2698 112.883 25.4795 112.491 25.6336C112.099 25.7877 111.65 25.8638 111.145 25.8638C110.855 25.8638 110.568 25.8361 110.286 25.7787C110.004 25.7214 109.733 25.6407 109.474 25.5359C109.214 25.4311 108.97 25.3048 108.744 25.157C108.516 25.01 108.314 24.8452 108.136 24.6642L108.636 23.8498C108.678 23.7916 108.733 23.7414 108.801 23.7011C108.868 23.6617 108.94 23.642 109.015 23.642C109.121 23.642 109.235 23.685 109.357 23.7719C109.479 23.8588 109.624 23.9538 109.793 24.0586C109.961 24.1643 110.159 24.2602 110.384 24.3462C110.609 24.4322 110.88 24.4761 111.196 24.4761C111.68 24.4761 112.055 24.3614 112.321 24.1311C112.586 23.9018 112.719 23.573 112.719 23.143C112.719 22.902 112.659 22.7076 112.539 22.5552C112.418 22.4038 112.259 22.2766 112.062 22.1736C111.864 22.0706 111.638 21.9828 111.385 21.9111C111.133 21.8403 110.875 21.7624 110.614 21.6773C110.352 21.593 110.096 21.4927 109.843 21.3744C109.59 21.2562 109.365 21.103 109.167 20.913C108.969 20.7231 108.81 20.4866 108.69 20.2026C108.57 19.9186 108.51 19.5683 108.51 19.1508C108.51 18.8184 108.576 18.4941 108.709 18.1787C108.841 17.8634 109.034 17.583 109.287 17.3393C109.54 17.0956 109.852 16.8994 110.222 16.7516C110.593 16.6037 111.019 16.5303 111.499 16.5303C112.038 16.5303 112.536 16.6145 112.991 16.7829C113.446 16.9513 113.834 17.187 114.154 17.4907L113.73 18.2916Z" fill="white"/>
<path d="M118.502 25.7619H116.796V16.6309H118.502V25.7619Z" fill="white"/>
<path d="M126.33 22.3933C126.391 22.5385 126.452 22.6854 126.51 22.8323C126.568 22.6764 126.63 22.5259 126.693 22.3808C126.757 22.2357 126.824 22.0959 126.896 21.9606L129.595 16.9023C129.629 16.8387 129.665 16.7885 129.703 16.7509C129.74 16.7133 129.781 16.6855 129.826 16.6685C129.87 16.6515 129.92 16.6416 129.974 16.6371C130.03 16.6335 130.094 16.6309 130.171 16.6309H131.454V25.7619H129.956V19.8642C129.956 19.754 129.959 19.6348 129.965 19.504C129.972 19.3732 129.981 19.2406 129.994 19.1063L127.232 24.2846C127.101 24.5328 126.901 24.6573 126.631 24.6573H126.391C126.121 24.6573 125.921 24.5328 125.79 24.2846L122.997 19.0874C123.009 19.2263 123.02 19.3625 123.028 19.4951C123.036 19.6277 123.041 19.7513 123.041 19.8651V25.7628H121.543V16.6309H122.826C122.902 16.6309 122.968 16.6327 123.023 16.6371C123.077 16.6416 123.127 16.6524 123.171 16.6685C123.215 16.6855 123.256 16.7124 123.292 16.7509C123.328 16.7894 123.362 16.8396 123.397 16.9023L126.133 21.9723C126.202 22.1084 126.27 22.2482 126.33 22.3933Z" fill="white"/>
</svg>
