<svg width="370" height="132" fill="none" xmlns="http://www.w3.org/2000/svg"><g filter="url(#filter0_d)"><path d="M77.787 48.032A15 15 0 0191.07 40h187.86a14.998 14.998 0 0113.283 8.032l16.263 31c.332.633.614 1.275.848 1.92l3.459 6.617C317.101 95.827 325.627 101 334.92 101l.08 1H35v-1a25 25 0 0022.139-13.386l3.643-6.945c.212-.55.459-1.097.742-1.637l16.263-31z" fill="url(#paint0_linear)"/></g><g filter="url(#filter1_ii)"><path d="M77.787 48.032A15 15 0 0191.07 40h187.86a14.998 14.998 0 0113.283 8.032l16.263 31c.332.633.614 1.275.848 1.92l3.459 6.617C317.101 95.827 325.627 101 334.92 101l.08 1H35v-1a25 25 0 0022.139-13.386l3.643-6.945c.212-.55.459-1.097.742-1.637l16.263-31z" fill="url(#paint1_linear)"/></g><path d="M79.115 48.729h0A13.5 13.5 0 0191.07 41.5h187.86a13.5 13.5 0 0111.955 7.228l16.262 31h0c.302.575.556 1.154.767 1.735l.034.095.047.09 3.459 6.616 1.329-.695-1.329.695a26.53 26.53 0 0013.382 12.236H45.1a26.497 26.497 0 0013.367-12.19h0l3.643-6.944.04-.077.032-.08c.19-.497.414-.99.67-1.48h0l16.263-31z" stroke="url(#paint2_linear)" stroke-width="3"/><defs><linearGradient id="paint0_linear" x1="615" y1="71.689" x2="-245" y2="71.689" gradientUnits="userSpaceOnUse"><stop stop-color="#65C1DE"/><stop offset="1" stop-color="#4669C3"/></linearGradient><linearGradient id="paint1_linear" x1="614.5" y1="71.689" x2="-245" y2="71.689" gradientUnits="userSpaceOnUse"><stop stop-color="#65C1DE"/><stop offset="1" stop-color="#4669C3"/></linearGradient><linearGradient id="paint2_linear" x1="615" y1="71.689" x2="-245" y2="71.689" gradientUnits="userSpaceOnUse"><stop stop-color="#65C1DE"/><stop offset="1" stop-color="#4669C3"/></linearGradient><filter id="filter0_d" x="0" y="0" width="370" height="132" filterUnits="userSpaceOnUse" color-interpolation-filters="sRGB"><feFlood flood-opacity="0" result="BackgroundImageFix"/><feColorMatrix in="SourceAlpha" values="0 0 0 0 0 0 0 0 0 0 0 0 0 0 0 0 0 0 127 0"/><feOffset dy="-5"/><feGaussianBlur stdDeviation="17.5"/><feColorMatrix values="0 0 0 0 0.0699306 0 0 0 0 0.687377 0 0 0 0 0.883333 0 0 0 0.2 0"/><feBlend in2="BackgroundImageFix" result="effect1_dropShadow"/><feBlend in="SourceGraphic" in2="effect1_dropShadow" result="shape"/></filter><filter id="filter1_ii" x="30" y="35" width="310" height="72" filterUnits="userSpaceOnUse" color-interpolation-filters="sRGB"><feFlood flood-opacity="0" result="BackgroundImageFix"/><feBlend in="SourceGraphic" in2="BackgroundImageFix" result="shape"/><feColorMatrix in="SourceAlpha" values="0 0 0 0 0 0 0 0 0 0 0 0 0 0 0 0 0 0 127 0" result="hardAlpha"/><feOffset dx="-5" dy="-5"/><feGaussianBlur stdDeviation="5"/><feComposite in2="hardAlpha" operator="arithmetic" k2="-1" k3="1"/><feColorMatrix values="0 0 0 0 0.908333 0 0 0 0 0.9945 0 0 0 0 1 0 0 0 0.3 0"/><feBlend in2="shape" result="effect1_innerShadow"/><feColorMatrix in="SourceAlpha" values="0 0 0 0 0 0 0 0 0 0 0 0 0 0 0 0 0 0 127 0" result="hardAlpha"/><feOffset dx="5" dy="5"/><feGaussianBlur stdDeviation="5"/><feComposite in2="hardAlpha" operator="arithmetic" k2="-1" k3="1"/><feColorMatrix values="0 0 0 0 0.0622222 0 0 0 0 0.0776811 0 0 0 0 0.133333 0 0 0 0.5 0"/><feBlend in2="effect1_innerShadow" result="effect2_innerShadow"/></filter></defs></svg>