<svg width="300" height="62" fill="none" xmlns="http://www.w3.org/2000/svg" class="static"><path d="M44.115 8.729h0A13.5 13.5 0 0156.07 1.5h187.86a13.5 13.5 0 0111.955 7.229l16.262 31h0c.302.574.556 1.153.767 1.734l.034.095.047.09 3.459 6.616 1.329-.695-1.329.695A26.53 26.53 0 00289.836 60.5H10.1a26.497 26.497 0 0013.367-12.19h0l3.643-6.944.04-.077.032-.08c.19-.497.414-.99.67-1.48h0l16.263-31z" fill="url(#paint0_linear)" stroke="url(#paint1_linear)" stroke-width="3"/><defs><linearGradient id="paint0_linear" x1="150" y1="0" x2="150" y2="62" gradientUnits="userSpaceOnUse"><stop stop-color="#24242D"/><stop offset="1" stop-color="#24242D"/></linearGradient><linearGradient id="paint1_linear" x1="580" y1="31.689" x2="-280" y2="31.689" gradientUnits="userSpaceOnUse"><stop stop-color="#65C1DE"/><stop offset="1" stop-color="#4669C3"/></linearGradient></defs></svg>