<svg width="19" height="21" fill="none" xmlns="http://www.w3.org/2000/svg"><g filter="url(#filter0_ii)"><path d="M17 9.438c0 3.983-3.764 7.966-6.883 9.325-.394.171-.84.171-1.234 0C5.764 17.403 2 13.42 2 9.437V4a2 2 0 012-2h11a2 2 0 012 2v5.438z" stroke="url(#paint0_linear)" stroke-width="4"/></g><path class="hover" d="M17 9.438c0 3.983-3.764 7.966-6.883 9.325-.394.171-.84.171-1.234 0C5.764 17.403 2 13.42 2 9.437V4a2 2 0 012-2h11a2 2 0 012 2v5.438z" stroke="url(#paint1_linear)" stroke-width="2"/><defs><linearGradient id="paint0_linear" x1="9.5" y1="2" x2="9.5" y2="19" gradientUnits="userSpaceOnUse"><stop stop-color="#1C1C24"/><stop offset="1" stop-color="#1C1C24"/></linearGradient><linearGradient id="paint1_linear" x1="17" y1="10.689" x2="2" y2="10.689" gradientUnits="userSpaceOnUse"><stop stop-color="#65C1DE"/><stop offset="1" stop-color="#4669C3"/></linearGradient><filter id="filter0_ii" x="-1" y="-1" width="21" height="22.892" filterUnits="userSpaceOnUse" color-interpolation-filters="sRGB"><feFlood flood-opacity="0" result="BackgroundImageFix"/><feBlend in="SourceGraphic" in2="BackgroundImageFix" result="shape"/><feColorMatrix in="SourceAlpha" values="0 0 0 0 0 0 0 0 0 0 0 0 0 0 0 0 0 0 127 0" result="hardAlpha"/><feOffset dx="1" dy="1"/><feGaussianBlur stdDeviation=".5"/><feComposite in2="hardAlpha" operator="arithmetic" k2="-1" k3="1"/><feColorMatrix values="0 0 0 0 0.0598958 0 0 0 0 0.0695199 0 0 0 0 0.104167 0 0 0 1 0"/><feBlend in2="shape" result="effect1_innerShadow"/><feColorMatrix in="SourceAlpha" values="0 0 0 0 0 0 0 0 0 0 0 0 0 0 0 0 0 0 127 0" result="hardAlpha"/><feOffset dx="-1" dy="-1"/><feGaussianBlur stdDeviation=".5"/><feComposite in2="hardAlpha" operator="arithmetic" k2="-1" k3="1"/><feColorMatrix values="0 0 0 0 0.219608 0 0 0 0 0.223529 0 0 0 0 0.301961 0 0 0 0.5 0"/><feBlend in2="effect1_innerShadow" result="effect2_innerShadow"/></filter></defs></svg>