<svg width="28" height="32" fill="none" xmlns="http://www.w3.org/2000/svg"><path d="M1.5 9L14 1l12.5 8L14 16.5 1.5 9z" stroke="#fff" stroke-width="2" stroke-linecap="round" stroke-linejoin="round"/><path d="M1.497 14.815l-.536.343a1 1 0 00.025 1.7l12.5 7.5a1 1 0 001.028 0l12.5-7.5a1 1 0 00.025-1.7l-.536-.343-1.915 1.148.014.01L14 22.332l-10.602-6.36.014-.01-1.915-1.148z" fill="#fff"/><path d="M1.497 21.8l-.536.343a1 1 0 00.025 1.7l12.5 7.5a1 1 0 001.028 0l12.5-7.5a1 1 0 00.025-1.7l-.536-.343-1.915 1.149.014.009L14 29.319 3.398 22.958l.014-.01L1.497 21.8z" fill="#fff"/></svg>