<svg width="22" height="23" fill="none" xmlns="http://www.w3.org/2000/svg"><g filter="url(#filter0_ii)"><path fill-rule="evenodd" clip-rule="evenodd" d="M14.549 17.549A9.5 9.5 0 1119 9.5a9.456 9.456 0 01-1.586 5.257l4 4a2 2 0 11-2.828 2.829l-4.037-4.037zM15 9.5a5.5 5.5 0 11-11 0 5.5 5.5 0 0111 0z" fill="url(#paint0_linear)"/></g><path class="hover" fill-rule="evenodd" clip-rule="evenodd" d="M14.714 16.214a8.5 8.5 0 111.424-1.404l4.57 4.569a1 1 0 01-1.415 1.414l-4.58-4.58zM16 9.5a6.5 6.5 0 11-13 0 6.5 6.5 0 0113 0z" fill="url(#paint1_linear)"/><defs><linearGradient id="paint0_linear" x1="11" y1="0" x2="11" y2="22.172" gradientUnits="userSpaceOnUse"><stop stop-color="#1C1C24"/><stop offset="1" stop-color="#1C1C24"/></linearGradient><linearGradient id="paint1_linear" x1="20.63" y1="8.423" x2="4.88" y2="5.56" gradientUnits="userSpaceOnUse"><stop stop-color="#476AC4"/><stop offset="1" stop-color="#65C0DE"/></linearGradient><filter id="filter0_ii" x="-1" y="-1" width="24" height="24.172" filterUnits="userSpaceOnUse" color-interpolation-filters="sRGB"><feFlood flood-opacity="0" result="BackgroundImageFix"/><feBlend in="SourceGraphic" in2="BackgroundImageFix" result="shape"/><feColorMatrix in="SourceAlpha" values="0 0 0 0 0 0 0 0 0 0 0 0 0 0 0 0 0 0 127 0" result="hardAlpha"/><feOffset dx="1" dy="1"/><feGaussianBlur stdDeviation=".5"/><feComposite in2="hardAlpha" operator="arithmetic" k2="-1" k3="1"/><feColorMatrix values="0 0 0 0 0.0598958 0 0 0 0 0.0695199 0 0 0 0 0.104167 0 0 0 1 0"/><feBlend in2="shape" result="effect1_innerShadow"/><feColorMatrix in="SourceAlpha" values="0 0 0 0 0 0 0 0 0 0 0 0 0 0 0 0 0 0 127 0" result="hardAlpha"/><feOffset dx="-1" dy="-1"/><feGaussianBlur stdDeviation=".5"/><feComposite in2="hardAlpha" operator="arithmetic" k2="-1" k3="1"/><feColorMatrix values="0 0 0 0 0.219608 0 0 0 0 0.223529 0 0 0 0 0.301961 0 0 0 0.5 0"/><feBlend in2="effect1_innerShadow" result="effect2_innerShadow"/></filter></defs></svg>