<svg width="24" height="24" fill="none" xmlns="http://www.w3.org/2000/svg"><g filter="url(#filter0_ii)"><path d="M19.054 3.034L4.211 8.242c-1.356.476-1.33 2.403.038 2.843l5.825 1.872a1.5 1.5 0 01.969.97l1.872 5.824c.44 1.369 2.367 1.394 2.843.038l5.209-14.843c.416-1.187-.726-2.329-1.913-1.912z" stroke="url(#paint0_linear)" stroke-width="4"/></g><path class="hover" d="M19.054 3.034L4.211 8.242c-1.356.476-1.33 2.403.038 2.843l5.825 1.872a1.5 1.5 0 01.969.97l1.872 5.824c.44 1.369 2.367 1.394 2.843.038l5.209-14.843c.416-1.187-.726-2.329-1.913-1.912z" stroke="url(#paint1_linear)" stroke-width="2"/><defs><linearGradient id="paint0_linear" x1="11" y1="2" x2="11" y2="24" gradientUnits="userSpaceOnUse"><stop stop-color="#1C1C24"/><stop offset="1" stop-color="#1C1C24"/></linearGradient><linearGradient id="paint1_linear" x1="22" y1="13.244" x2="0" y2="13.244" gradientUnits="userSpaceOnUse"><stop stop-color="#65C1DE"/><stop offset="1" stop-color="#4669C3"/></linearGradient><filter id="filter0_ii" x=".208" y="-.058" width="23.85" height="23.85" filterUnits="userSpaceOnUse" color-interpolation-filters="sRGB"><feFlood flood-opacity="0" result="BackgroundImageFix"/><feBlend in="SourceGraphic" in2="BackgroundImageFix" result="shape"/><feColorMatrix in="SourceAlpha" values="0 0 0 0 0 0 0 0 0 0 0 0 0 0 0 0 0 0 127 0" result="hardAlpha"/><feOffset dx="1" dy="1"/><feGaussianBlur stdDeviation=".5"/><feComposite in2="hardAlpha" operator="arithmetic" k2="-1" k3="1"/><feColorMatrix values="0 0 0 0 0.0598958 0 0 0 0 0.0695199 0 0 0 0 0.104167 0 0 0 1 0"/><feBlend in2="shape" result="effect1_innerShadow"/><feColorMatrix in="SourceAlpha" values="0 0 0 0 0 0 0 0 0 0 0 0 0 0 0 0 0 0 127 0" result="hardAlpha"/><feOffset dx="-1" dy="-1"/><feGaussianBlur stdDeviation=".5"/><feComposite in2="hardAlpha" operator="arithmetic" k2="-1" k3="1"/><feColorMatrix values="0 0 0 0 0.219608 0 0 0 0 0.223529 0 0 0 0 0.301961 0 0 0 0.5 0"/><feBlend in2="effect1_innerShadow" result="effect2_innerShadow"/></filter></defs></svg>