<svg width="202" height="32" fill="none" xmlns="http://www.w3.org/2000/svg"><path d="M7.64 26H1.376c-.264 0-.396-.132-.396-.396v-.828c0-.24.132-.36.396-.36H7.46c2.16 0 3.24-.84 3.24-2.52v-.864c0-1.56-.672-2.58-2.016-3.06l-4.5-1.728c-1.224-.48-2.1-1.044-2.628-1.692-.504-.648-.756-1.548-.756-2.7C.8 9.044 2.348 7.64 5.444 7.64h5.832c.264 0 .396.132.396.396v.828c0 .24-.132.36-.396.36H5.624c-.984 0-1.728.216-2.232.648-.48.432-.72.936-.72 1.512v.828c0 .672.18 1.2.54 1.584.384.384.96.708 1.728.972l4.5 1.8c1.248.408 2.076 1.02 2.484 1.836.432.792.648 1.908.648 3.348s-.408 2.508-1.224 3.204C10.556 25.652 9.32 26 7.64 26zm9.744-21.384V1.16c0-.264.12-.396.36-.396h1.08c.24 0 .36.132.36.396v3.456c0 .288-.12.432-.36.432h-1.08c-.24 0-.36-.144-.36-.432zm0 20.952V8.072c0-.288.12-.432.36-.432h1.044c.264 0 .396.144.396.432v17.496c0 .288-.12.432-.36.432h-1.08c-.24 0-.36-.144-.36-.432zm8.782.432h-1.044c-.24 0-.36-.144-.36-.432V8.072c0-.288.12-.432.36-.432h1.044c.264 0 .396.144.396.432v1.44h.144c.697-1.248 1.968-1.872 3.817-1.872h1.476c2.112 0 3.576.84 4.392 2.52.36-.84.972-1.464 1.836-1.872a5.891 5.891 0 012.664-.648h1.331c1.56 0 2.785.456 3.673 1.368.888.912 1.332 2.16 1.332 3.744v12.816c0 .288-.132.432-.396.432h-1.045c-.264 0-.395-.144-.395-.432V12.824c0-1.152-.288-2.028-.864-2.628-.576-.624-1.416-.936-2.52-.936h-1.332c-1.152 0-2.064.336-2.736 1.008-.672.648-1.008 1.536-1.008 2.664v12.636c0 .288-.133.432-.396.432H35.49c-.264 0-.396-.144-.396-.432V12.824c0-1.152-.288-2.028-.864-2.628-.577-.624-1.416-.936-2.52-.936h-1.44c-1.152 0-2.065.312-2.736.936-.648.6-.973 1.464-.973 2.592v12.78c0 .288-.132.432-.396.432zm36.524-1.224v.828c0 .264-.131.396-.395.396H57.11c-1.56 0-2.796-.456-3.708-1.368-.889-.912-1.332-2.16-1.332-3.744v-8.136c0-1.584.444-2.832 1.332-3.744.912-.912 2.148-1.368 3.708-1.368h5.184c.264 0 .395.132.395.396V8.9c0 .24-.131.36-.395.36h-5.04c-1.105 0-1.945.312-2.52.936-.577.624-.864 1.5-.864 2.628v7.992c0 1.128.287 2.004.863 2.628.576.624 1.416.936 2.52.936h5.04c.265 0 .397.132.397.396zM73.582 26H71.28c-1.56 0-2.796-.456-3.709-1.368-.887-.912-1.331-2.16-1.331-3.744v-8.136c0-1.584.444-2.832 1.331-3.744.913-.912 2.149-1.368 3.709-1.368h7.632c.24 0 .36.144.36.432v17.496c0 .288-.12.432-.36.432h-1.044c-.264 0-.397-.144-.397-.432v-1.44h-.144C76.703 25.376 75.456 26 73.584 26zm3.889-5.148V9.584c0-.216-.12-.324-.36-.324h-5.689c-1.103 0-1.944.312-2.52.936-.576.624-.864 1.5-.864 2.628v7.992c0 1.128.288 2.004.865 2.628.575.624 1.415.936 2.52.936h2.34c1.151 0 2.051-.3 2.7-.9.672-.624 1.008-1.5 1.008-2.628zM86.073 26h-1.044c-.24 0-.36-.144-.36-.432V8.072c0-.288.12-.432.36-.432h1.044c.264 0 .396.144.396.432v1.512h.144c.264-.504.732-.948 1.404-1.332.672-.408 1.5-.612 2.484-.612h1.404c.264 0 .396.132.396.396V8.9c0 .264-.132.384-.396.36h-1.692c-1.176 0-2.1.36-2.772 1.08-.648.72-.972 1.692-.972 2.916v12.312c0 .288-.132.432-.396.432zm16.901 0h-2.412c-1.536 0-2.748-.456-3.636-1.368-.888-.912-1.332-2.16-1.332-3.744v-8.136c0-1.584.444-2.832 1.332-3.744.888-.912 2.1-1.368 3.636-1.368h2.412c1.848 0 3.108.624 3.78 1.872h.144V1.124c0-.288.12-.432.36-.432h1.044c.264 0 .396.144.396.432v24.444c0 .288-.132.432-.396.432h-1.044c-.24 0-.36-.144-.36-.432v-1.44h-.144c-.672 1.248-1.932 1.872-3.78 1.872zm3.924-5.148v-8.064c0-1.128-.336-1.992-1.008-2.592-.648-.624-1.548-.936-2.7-.936h-2.412c-1.104 0-1.944.312-2.52.936-.576.624-.864 1.5-.864 2.628v7.992c0 1.128.288 2.004.864 2.628.576.624 1.416.936 2.52.936h2.412c1.152 0 2.052-.3 2.7-.9.672-.624 1.008-1.5 1.008-2.628zM120.035 26h-6.264c-.264 0-.396-.132-.396-.396v-.828c0-.24.132-.36.396-.36h6.084c2.16 0 3.24-.84 3.24-2.52v-.864c0-1.56-.672-2.58-2.016-3.06l-4.5-1.728c-1.224-.48-2.1-1.044-2.628-1.692-.504-.648-.756-1.548-.756-2.7 0-2.808 1.548-4.212 4.644-4.212h5.832c.264 0 .396.132.396.396v.828c0 .24-.132.36-.396.36h-5.652c-.984 0-1.728.216-2.232.648-.48.432-.72.936-.72 1.512v.828c0 .672.18 1.2.54 1.584.384.384.96.708 1.728.972l4.5 1.8c1.248.408 2.076 1.02 2.484 1.836.432.792.648 1.908.648 3.348s-.408 2.508-1.224 3.204c-.792.696-2.028 1.044-3.708 1.044zm11.291-4.716v4.284c0 .288-.12.432-.36.432h-1.26c-.264 0-.396-.144-.396-.432v-4.284c0-.264.132-.396.396-.396h1.26c.24 0 .36.132.36.396zM142.429 26h-6.264c-.264 0-.396-.132-.396-.396v-.828c0-.24.132-.36.396-.36h6.084c2.16 0 3.24-.84 3.24-2.52v-.864c0-1.56-.672-2.58-2.016-3.06l-4.5-1.728c-1.224-.48-2.1-1.044-2.628-1.692-.504-.648-.756-1.548-.756-2.7 0-2.808 1.548-4.212 4.644-4.212h5.832c.264 0 .396.132.396.396v.828c0 .24-.132.36-.396.36h-5.652c-.984 0-1.728.216-2.232.648-.48.432-.72.936-.72 1.512v.828c0 .672.18 1.2.54 1.584.384.384.96.708 1.728.972l4.5 1.8c1.248.408 2.076 1.02 2.484 1.836.432.792.648 1.908.648 3.348s-.408 2.508-1.224 3.204c-.792.696-2.028 1.044-3.708 1.044zm10.968 0h-1.044c-.24 0-.36-.144-.36-.432V1.124c0-.288.12-.432.36-.432h1.044c.264 0 .396.144.396.432v8.388h.144c.672-1.248 1.92-1.872 3.744-1.872h2.376c1.536 0 2.748.456 3.636 1.368.888.912 1.332 2.16 1.332 3.744v12.816c0 .288-.12.432-.36.432h-1.044c-.264 0-.396-.144-.396-.432V12.824c0-1.128-.288-2.004-.864-2.628-.576-.624-1.416-.936-2.52-.936h-2.34c-1.152 0-2.064.312-2.736.936-.648.6-.972 1.464-.972 2.592v12.78c0 .288-.132.432-.396.432zm24.618 0h-3.096c-1.56 0-2.796-.456-3.708-1.368-.888-.912-1.332-2.16-1.332-3.744v-8.136c0-1.584.444-2.832 1.332-3.744.912-.912 2.148-1.368 3.708-1.368h3.096c1.56 0 2.796.456 3.708 1.368.912.912 1.368 2.16 1.368 3.744v8.136c0 1.584-.456 2.832-1.368 3.744-.912.912-2.148 1.368-3.708 1.368zm-2.952-1.62h2.808c1.104 0 1.944-.3 2.52-.9.6-.624.9-1.5.9-2.628v-8.064c0-1.128-.3-1.992-.9-2.592-.576-.624-1.416-.936-2.52-.936h-2.808c-1.104 0-1.944.312-2.52.936-.576.6-.864 1.464-.864 2.592v8.064c0 1.128.288 2.004.864 2.628.576.6 1.416.9 2.52.9zm14.439 6.984h-1.044c-.24 0-.36-.132-.36-.396V8.072c0-.288.12-.432.36-.432h1.044c.264 0 .396.144.396.432v1.44h.144c.672-1.248 1.92-1.872 3.744-1.872h2.448c1.536 0 2.748.456 3.636 1.368.888.912 1.332 2.16 1.332 3.744v8.136c0 1.584-.444 2.832-1.332 3.744-.888.912-2.1 1.368-3.636 1.368h-2.448c-1.824 0-3.072-.624-3.744-1.872h-.144v6.84c0 .264-.132.396-.396.396zm4.104-6.984h2.376c1.104 0 1.944-.3 2.52-.9.6-.624.9-1.512.9-2.664v-7.992c0-1.152-.3-2.028-.9-2.628-.576-.624-1.416-.936-2.52-.936h-2.376c-1.152 0-2.064.312-2.736.936-.648.6-.972 1.464-.972 2.592v8.064c0 1.128.324 2.004.972 2.628.672.6 1.584.9 2.736.9z" fill="#F2F2F2"/></svg>