<svg width="136" height="32" fill="none" xmlns="http://www.w3.org/2000/svg"><path d="M134.162 11.072h-26.957l-4.612 3.67v14.946c0 .787.825 1.462 1.837 1.462h29.732c1.012 0 1.837-.637 1.837-1.462V12.534c0-.787-.825-1.462-1.837-1.462zM17.815 0h-4.139v14.603h4.139V0z" fill="#2196F3"/><path d="M27.69 12.725c-.049-.115-.093-.231-.146-.343l-.175-.33-.352-.657c-.253-.425-.535-.83-.81-1.23l-.458-.563c-.154-.185-.296-.377-.47-.54l-.496-.504c-.084-.081-.164-.166-.248-.245l-.265-.222a13.102 13.102 0 00-3.014-1.957v2.599c.453.34.9.715 1.317 1.151l.198.198c.062.07.12.146.18.219l.362.44c.128.141.225.31.334.468l.323.48c.186.34.38.679.547 1.029l.225.54.114.268c.034.09.058.185.088.279.49 1.474.622 3.038.451 4.453a9.916 9.916 0 01-1.166 3.64l-.196.359c-.062.117-.147.218-.215.324-.148.206-.272.411-.412.587-.3.338-.522.66-.768.87-.234.221-.4.41-.536.516-.134.107-.205.166-.205.166l-.33.267c-.102.095-.25.182-.417.293-.171.106-.352.248-.578.372-.877.528-2.259 1.1-3.974 1.241-.107.01-.214.02-.323.032-.11.007-.22-.002-.333 0l-.68-.005c-.458-.064-.933-.076-1.402-.205-.941-.205-1.905-.542-2.784-1.094a9.121 9.121 0 01-2.361-2.072 8.784 8.784 0 01-1.507-2.783c-.32-1.002-.472-2.045-.403-3.068a8.578 8.578 0 01.67-2.853c.372-.863.86-1.638 1.446-2.256.58-.62 1.197-1.132 1.824-1.5.082-.05.164-.09.246-.135V2.23a15.782 15.782 0 00-4.74 2.418c-1.157.858-2.264 1.966-3.242 3.27-.982 1.303-1.772 2.855-2.3 4.537a15.588 15.588 0 00-.695 5.32c.07 1.819.512 3.65 1.243 5.33a14.954 14.954 0 007.213 7.483c1.504.737 3.092 1.138 4.593 1.313.751.113 1.488.088 2.193.099l1.039-.089c.168-.018.337-.026.501-.052.165-.031.327-.062.489-.091 2.584-.467 4.53-1.528 5.733-2.409.31-.211.558-.437.787-.615.224-.184.42-.334.557-.48l.438-.428.267-.265c.175-.17.396-.456.692-.802.308-.336.6-.811.961-1.328.17-.265.325-.566.499-.874.082-.157.18-.31.253-.48l.229-.521a13.569 13.569 0 00-.01-10.84zm4.629 17.474V14.316h1.68c.397 0 .643.194.737.58l.22 1.724a8.872 8.872 0 012.323-1.85c.857-.47 1.846-.705 2.965-.705.868 0 1.635.144 2.3.43a4.451 4.451 0 011.663 1.223c.445.528.782 1.163 1.012 1.905.23.743.345 1.563.345 2.462v10.112h-2.81V20.086c0-1.202-.274-2.135-.823-2.799-.55-.664-1.384-.995-2.504-.995-.836 0-1.613.199-2.33.595a7.39 7.39 0 00-1.97 1.615v11.696H32.32zM52.72 7.105V30.2h-2.794V7.105h2.794zm8.065 2.226c0 .272-.054.525-.165.76-.11.236-.256.445-.439.628a2.007 2.007 0 01-1.42.588 1.85 1.85 0 01-.76-.157 1.955 1.955 0 01-.62-.431 2.143 2.143 0 01-.425-.627 1.843 1.843 0 01-.157-.76c0-.272.052-.531.157-.777a2.08 2.08 0 01.424-.642 1.97 1.97 0 01.62-.431c.235-.105.489-.157.761-.157s.531.052.777.157a2.032 2.032 0 011.083 1.073c.11.246.164.504.164.776zm-.596 4.985v15.882h-2.793V14.316h2.793zm4.583 15.883V14.316h1.68c.396 0 .643.194.737.58l.22 1.724a8.872 8.872 0 012.322-1.85c.858-.47 1.847-.705 2.966-.705.868 0 1.635.144 2.3.43a4.451 4.451 0 011.663 1.223c.445.528.782 1.163 1.011 1.905.23.743.345 1.563.345 2.462v10.112h-2.809V20.086c0-1.202-.274-2.135-.823-2.799-.55-.664-1.384-.995-2.504-.995a4.74 4.74 0 00-2.33.595 7.391 7.391 0 00-1.97 1.615v11.696h-2.808zm24.025-16.134c.952 0 1.833.16 2.644.479.81.319 1.512.778 2.103 1.38.59.6 1.053 1.343 1.389 2.226.334.883.502 1.888.502 3.018 0 .438-.048.731-.142.877-.094.146-.273.22-.533.22H84.136c.02 1.003.157 1.876.408 2.618.25.742.596 1.361 1.035 1.858.44.496.963.867 1.57 1.112.607.246 1.287.369 2.04.369.7 0 1.305-.081 1.812-.243a8.631 8.631 0 001.31-.525 10 10 0 00.918-.525c.246-.162.457-.243.636-.243.23 0 .408.09.533.267l.785 1.019a5.308 5.308 0 01-1.24 1.09c-.48.308-.996.562-1.545.76a9.83 9.83 0 01-1.703.448c-.586.098-1.167.148-1.742.148-1.098 0-2.11-.185-3.036-.556a6.664 6.664 0 01-2.4-1.63c-.675-.716-1.202-1.602-1.578-2.658-.377-1.056-.565-2.267-.565-3.638 0-1.107.17-2.142.51-3.103a7.322 7.322 0 011.466-2.502 6.744 6.744 0 012.338-1.662c.923-.402 1.958-.604 3.11-.604zm.063 2.055c-1.35 0-2.412.39-3.185 1.168-.775.78-1.256 1.858-1.444 3.238h8.694c0-.648-.092-1.241-.275-1.78a3.97 3.97 0 00-.8-1.394 3.564 3.564 0 00-1.28-.91c-.502-.215-1.072-.322-1.71-.322z" fill="#2196F3"/><path d="M113.73 18.292a.578.578 0 01-.161.192.36.36 0 01-.212.06.552.552 0 01-.287-.097 7.217 7.217 0 00-.37-.218 3.095 3.095 0 00-.502-.218 2.116 2.116 0 00-.68-.097 2.03 2.03 0 00-.62.085 1.294 1.294 0 00-.445.236.95.95 0 00-.268.363 1.18 1.18 0 00-.089.464c0 .215.06.393.18.537.12.143.28.265.477.366.197.101.423.192.676.272.253.08.512.165.778.256.265.09.524.195.777.316.253.12.478.272.676.455.199.183.357.407.478.672.12.265.18.587.18.966 0 .413-.071.8-.212 1.16a2.706 2.706 0 01-.619.94 2.92 2.92 0 01-.996.632 3.66 3.66 0 01-1.346.23 4.3 4.3 0 01-.859-.085 4.605 4.605 0 01-.812-.243 4.199 4.199 0 01-.73-.379 3.536 3.536 0 01-.608-.493l.5-.814a.541.541 0 01.165-.149.417.417 0 01.214-.059.6.6 0 01.342.13c.122.087.267.182.436.287.168.105.366.201.591.287.225.086.496.13.812.13.484 0 .859-.115 1.125-.345.265-.23.398-.558.398-.988 0-.241-.06-.435-.18-.588a1.473 1.473 0 00-.477-.381 3.585 3.585 0 00-.677-.263 19.54 19.54 0 01-.771-.234 6.553 6.553 0 01-.771-.303 2.49 2.49 0 01-.676-.461 2.102 2.102 0 01-.477-.71c-.12-.284-.18-.635-.18-1.052 0-.333.066-.657.199-.972.132-.316.325-.596.578-.84.253-.243.565-.44.935-.587a3.43 3.43 0 011.277-.222 4.27 4.27 0 011.492.253c.455.168.843.404 1.163.708l-.424.8zm4.772 7.47h-1.706V16.63h1.706v9.13zm7.828-3.369c.061.145.122.292.18.44.058-.157.12-.307.183-.452a6.28 6.28 0 01.203-.42l2.699-5.059a.628.628 0 01.108-.151.343.343 0 01.123-.082.535.535 0 01.148-.032c.056-.003.12-.006.197-.006h1.283v9.13h-1.498v-5.897a7.878 7.878 0 01.038-.758l-2.762 5.179c-.131.248-.331.372-.601.372h-.24c-.27 0-.47-.124-.601-.372l-2.793-5.198c.012.14.023.276.031.408.008.133.013.256.013.37v5.898h-1.498V16.63h1.283c.076 0 .142.002.197.006a.57.57 0 01.148.032.325.325 0 01.121.082c.036.038.07.089.105.151l2.736 5.07c.069.136.137.276.197.421z" fill="#fff"/></svg>