<svg width="311" height="442" fill="none" xmlns="http://www.w3.org/2000/svg"><mask id="a" maskUnits="userSpaceOnUse" x="0" y="0" width="311" height="442"><rect x=".5" width="310" height="442" rx="20" fill="url(#paint0_linear)"/></mask><g mask="url(#a)"><g opacity=".4"><path d="M381.067 171.771L220.009-20.286 428.984 2.205c4.17.449 7.189 4.175 6.743 8.322l-36.371 337.936-216.526-23.304 198.237-153.388z" fill="url(#paint1_linear)"/><path d="M171.966 323.99l198.237-153.388L209.145-21.455l-45.246-4.87 161.058 192.057L126.72 319.12l45.246 4.87z" fill="url(#paint2_linear)"/><path d="M303.229 163.394L104.992 316.782l-42.074-4.529 198.237-153.388L100.097-33.192l42.074 4.529 161.058 192.057z" fill="url(#paint3_linear)"/><path d="M30.325 308.745l198.237-153.387L67.504-36.7l-38.826-4.178a7.635 7.635 0 00-2.263.092l160.748 191.688L-11.074 304.29l41.4 4.455z" fill="url(#paint4_linear)"/></g><rect x=".5" width="310" height="442" rx="20" fill="url(#paint5_linear)"/></g><defs><linearGradient id="paint0_linear" x1="155.5" y1="0" x2="155.5" y2="442" gradientUnits="userSpaceOnUse"><stop stop-color="#1C1C24"/><stop offset="1" stop-color="#1C1C24"/></linearGradient><linearGradient id="paint1_linear" x1="417.532" y1="179.579" x2="7.102" y2="135.406" gradientUnits="userSpaceOnUse"><stop stop-color="#65C1DE"/><stop offset="1" stop-color="#4669C3"/></linearGradient><linearGradient id="paint2_linear" x1="417.532" y1="179.579" x2="7.102" y2="135.406" gradientUnits="userSpaceOnUse"><stop stop-color="#65C1DE"/><stop offset="1" stop-color="#4669C3"/></linearGradient><linearGradient id="paint3_linear" x1="417.532" y1="179.579" x2="7.102" y2="135.406" gradientUnits="userSpaceOnUse"><stop stop-color="#65C1DE"/><stop offset="1" stop-color="#4669C3"/></linearGradient><linearGradient id="paint4_linear" x1="417.532" y1="179.579" x2="7.102" y2="135.406" gradientUnits="userSpaceOnUse"><stop stop-color="#65C1DE"/><stop offset="1" stop-color="#4669C3"/></linearGradient><linearGradient id="paint5_linear" x1="83.5" y1="21" x2="264.5" y2="345" gradientUnits="userSpaceOnUse"><stop offset=".149" stop-color="#1C1C24"/><stop offset=".407" stop-color="#1C1C24" stop-opacity=".696"/><stop offset="1" stop-color="#1C1C24" stop-opacity="0"/></linearGradient></defs></svg>