<svg width="57" height="48" fill="none" xmlns="http://www.w3.org/2000/svg"><path d="M51.878 24L26.93 0h29.022C56.531 0 57 .467 57 1.043V48H26.93l24.948-24z" fill="url(#paint0_linear)"/><path d="M25.42 48l24.95-24L25.42 0h-6.283l24.949 24-24.95 24h6.284z" fill="url(#paint1_linear)"/><path d="M41.068 24L16.12 48h-5.843l24.95-24-24.95-24h5.843l24.95 24z" fill="url(#paint2_linear)"/><path d="M5.75 48l24.949-24L5.749 0H.358C.25 0 .146.016.048.046L24.949 24 0 48h5.75z" fill="url(#paint3_linear)"/><defs><linearGradient id="paint0_linear" x1="57" y1="24.533" x2="0" y2="24.533" gradientUnits="userSpaceOnUse"><stop stop-color="#65C1DE"/><stop offset=".516" stop-color="#5594D0"/><stop offset="1" stop-color="#4669C3" stop-opacity="0"/></linearGradient><linearGradient id="paint1_linear" x1="57" y1="24.533" x2="0" y2="24.533" gradientUnits="userSpaceOnUse"><stop stop-color="#65C1DE"/><stop offset=".516" stop-color="#5594D0"/><stop offset="1" stop-color="#4669C3" stop-opacity="0"/></linearGradient><linearGradient id="paint2_linear" x1="57" y1="24.533" x2="0" y2="24.533" gradientUnits="userSpaceOnUse"><stop stop-color="#65C1DE"/><stop offset=".516" stop-color="#5594D0"/><stop offset="1" stop-color="#4669C3" stop-opacity="0"/></linearGradient><linearGradient id="paint3_linear" x1="57" y1="24.533" x2="0" y2="24.533" gradientUnits="userSpaceOnUse"><stop stop-color="#65C1DE"/><stop offset=".516" stop-color="#5594D0"/><stop offset="1" stop-color="#4669C3" stop-opacity="0"/></linearGradient></defs></svg>